<mxfile host="app.diagrams.net" modified="2024-06-17T13:42:36.700Z" agent="Mozilla/5.0 (Windows NT 10.0; Win64; x64) AppleWebKit/537.36 (KHTML, like Gecko) Chrome/125.0.0.0 Safari/537.36" etag="AiU2iT8FZwZ4OpWeFQ2i" version="24.5.4" type="device">
  <diagram name="Page-1" id="c7558073-3199-34d8-9f00-42111426c3f3">
    <mxGraphModel dx="1373" dy="742" grid="1" gridSize="10" guides="1" tooltips="1" connect="1" arrows="1" fold="1" page="1" pageScale="1" pageWidth="826" pageHeight="1169" background="none" math="0" shadow="0">
      <root>
        <mxCell id="0" />
        <mxCell id="1" parent="0" />
        <mxCell id="ycSZKVt9kxKDL0nO7_Xi-96" value="Сервер" style="rounded=1;whiteSpace=wrap;html=1;" vertex="1" parent="1">
          <mxGeometry x="353" y="180" width="120" height="60" as="geometry" />
        </mxCell>
        <mxCell id="ycSZKVt9kxKDL0nO7_Xi-97" value="Gateway" style="rounded=1;whiteSpace=wrap;html=1;" vertex="1" parent="1">
          <mxGeometry x="353" y="310" width="120" height="60" as="geometry" />
        </mxCell>
        <mxCell id="ycSZKVt9kxKDL0nO7_Xi-98" value="Сенсоры" style="rounded=1;whiteSpace=wrap;html=1;" vertex="1" parent="1">
          <mxGeometry x="220" y="585" width="120" height="60" as="geometry" />
        </mxCell>
        <mxCell id="ycSZKVt9kxKDL0nO7_Xi-99" value="MQTT Broker" style="rounded=1;whiteSpace=wrap;html=1;" vertex="1" parent="1">
          <mxGeometry x="353" y="460" width="120" height="60" as="geometry" />
        </mxCell>
        <mxCell id="ycSZKVt9kxKDL0nO7_Xi-100" value="MySQL" style="shape=cylinder3;whiteSpace=wrap;html=1;boundedLbl=1;backgroundOutline=1;size=15;" vertex="1" parent="1">
          <mxGeometry x="600" y="160" width="60" height="80" as="geometry" />
        </mxCell>
        <mxCell id="ycSZKVt9kxKDL0nO7_Xi-101" value="Клиент приложение" style="rounded=1;whiteSpace=wrap;html=1;" vertex="1" parent="1">
          <mxGeometry x="353" y="60" width="120" height="60" as="geometry" />
        </mxCell>
        <mxCell id="ycSZKVt9kxKDL0nO7_Xi-103" value="" style="endArrow=open;endFill=1;endSize=12;html=1;rounded=0;exitX=0.5;exitY=0;exitDx=0;exitDy=0;entryX=0.5;entryY=1;entryDx=0;entryDy=0;" edge="1" parent="1" source="ycSZKVt9kxKDL0nO7_Xi-98" target="ycSZKVt9kxKDL0nO7_Xi-99">
          <mxGeometry width="160" relative="1" as="geometry">
            <mxPoint x="313" y="560" as="sourcePoint" />
            <mxPoint x="473" y="560" as="targetPoint" />
          </mxGeometry>
        </mxCell>
        <mxCell id="ycSZKVt9kxKDL0nO7_Xi-104" value="Контроллеры моторов" style="rounded=1;whiteSpace=wrap;html=1;" vertex="1" parent="1">
          <mxGeometry x="500" y="580" width="120" height="60" as="geometry" />
        </mxCell>
        <mxCell id="ycSZKVt9kxKDL0nO7_Xi-105" value="" style="endArrow=open;endFill=1;endSize=12;html=1;rounded=0;exitX=0.5;exitY=1;exitDx=0;exitDy=0;entryX=0.5;entryY=0;entryDx=0;entryDy=0;" edge="1" parent="1" source="ycSZKVt9kxKDL0nO7_Xi-99" target="ycSZKVt9kxKDL0nO7_Xi-104">
          <mxGeometry width="160" relative="1" as="geometry">
            <mxPoint x="400" y="550" as="sourcePoint" />
            <mxPoint x="560" y="550" as="targetPoint" />
          </mxGeometry>
        </mxCell>
        <mxCell id="ycSZKVt9kxKDL0nO7_Xi-106" value="" style="endArrow=block;startArrow=block;endFill=1;startFill=1;html=1;rounded=0;exitX=0.5;exitY=1;exitDx=0;exitDy=0;entryX=0.5;entryY=0;entryDx=0;entryDy=0;" edge="1" parent="1" source="ycSZKVt9kxKDL0nO7_Xi-97" target="ycSZKVt9kxKDL0nO7_Xi-99">
          <mxGeometry width="160" relative="1" as="geometry">
            <mxPoint x="380" y="410" as="sourcePoint" />
            <mxPoint x="540" y="410" as="targetPoint" />
          </mxGeometry>
        </mxCell>
        <mxCell id="ycSZKVt9kxKDL0nO7_Xi-107" value="" style="endArrow=block;startArrow=block;endFill=1;startFill=1;html=1;rounded=0;entryX=0.5;entryY=0;entryDx=0;entryDy=0;exitX=0.5;exitY=1;exitDx=0;exitDy=0;" edge="1" parent="1" source="ycSZKVt9kxKDL0nO7_Xi-96" target="ycSZKVt9kxKDL0nO7_Xi-97">
          <mxGeometry width="160" relative="1" as="geometry">
            <mxPoint x="410" y="250" as="sourcePoint" />
            <mxPoint x="530" y="270" as="targetPoint" />
          </mxGeometry>
        </mxCell>
        <mxCell id="ycSZKVt9kxKDL0nO7_Xi-108" value="" style="endArrow=block;startArrow=block;endFill=1;startFill=1;html=1;rounded=0;entryX=0;entryY=0;entryDx=0;entryDy=52.5;entryPerimeter=0;exitX=1;exitY=0.5;exitDx=0;exitDy=0;" edge="1" parent="1" source="ycSZKVt9kxKDL0nO7_Xi-96" target="ycSZKVt9kxKDL0nO7_Xi-100">
          <mxGeometry width="160" relative="1" as="geometry">
            <mxPoint x="413" y="209.57999999999998" as="sourcePoint" />
            <mxPoint x="573" y="209.57999999999998" as="targetPoint" />
          </mxGeometry>
        </mxCell>
        <mxCell id="ycSZKVt9kxKDL0nO7_Xi-109" value="" style="endArrow=block;startArrow=block;endFill=1;startFill=1;html=1;rounded=0;exitX=0.5;exitY=1;exitDx=0;exitDy=0;entryX=0.5;entryY=0;entryDx=0;entryDy=0;" edge="1" parent="1" source="ycSZKVt9kxKDL0nO7_Xi-101" target="ycSZKVt9kxKDL0nO7_Xi-96">
          <mxGeometry width="160" relative="1" as="geometry">
            <mxPoint x="400" y="140" as="sourcePoint" />
            <mxPoint x="560" y="140" as="targetPoint" />
          </mxGeometry>
        </mxCell>
      </root>
    </mxGraphModel>
  </diagram>
</mxfile>
